# xmcd
#
# Track frame offsets: 
#        150
#        2612
#        24000
#        52253
#        76062
#        95324
#        114462
#        134192
#        154211
#        176968
#
# Disc length: 2604 seconds
#
# Revision: 0
# Processed by: cddbd v1.5.2PL0 Copyright (c) Steve Scherf et al.
# Submitted via: ExactAudioCopy v0.99pb5
#
DISCID=7a0a2a0a
DTITLE=Vickie Baker - I Could Show You
DYEAR=2007
DGENRE=Soul
TTITLE0=Intro
TTITLE1=Right Thang Wron Man
TTITLE2=I Could Show You
TTITLE3=Big Feet
TTITLE4=Tussy Rol
TTITLE5=He Say She Say
TTITLE6=Get Me Weak
TTITLE7=Till the Morning Light
TTITLE8=Straight Talkin
TTITLE9=Right Thang Wrong Man (Radio Version)
EXTD=
EXTT0=
EXTT1=
EXTT2=
EXTT3=
EXTT4=
EXTT5=
EXTT6=
EXTT7=
EXTT8=
EXTT9=
PLAYORDER=
